<svg width="850" height="900" xmlns="http://www.w3.org/2000/svg">
 <style type="text/css">.st0{fill:#25799E;}
	.st1{fill:#F4CC21;}
	.st2{fill:#FCEB54;}
	.st3{fill:#F2BB22;}
	.st4{fill:#0E5177;}
	.st5{fill:#FFF9DE;}
	.st6{fill:#754C24;}
	.st7{fill:none;stroke:#754C24;stroke-width:20;stroke-linecap:round;stroke-miterlimit:10;}
	.st8{fill:none;stroke:#DD434E;stroke-width:20;stroke-linecap:round;stroke-miterlimit:10;}
	.st9{fill:#DD434E;}</style>

 <g>
  <title>background</title>
  <rect fill="none" id="canvas_background" height="902" width="852" y="-1" x="-1"/>
 </g>
 <g>
  <title>Layer 1</title>
  <g id="svg_37">
   <g id="svg_1">
    <path id="svg_2" d="m291.571384,303.244318l-25.5,16.6l-107.9,-165.1c-4.6,-7 -2.6,-16.5 4.4,-21.1l0,0c7,-4.6 16.5,-2.6 21.1,4.4l107.9,165.2z" class="st0"/>
    <path id="svg_3" d="m173.271384,150.044318c-49.2,32.2 -62.8,98.7 -30.9,147.4l178.3,-116.5c-31.8,-48.7 -98.1,-63 -147.4,-30.9z" class="st1"/>
    <path id="svg_4" d="m173.271384,150.044318c-3.4,2.2 -6.6,4.6 -9.6,7.1c47.8,-24.1 107.4,-8.6 137.1,36.9l19.9,-13c-31.8,-48.8 -98.1,-63.1 -147.4,-31z" class="st2"/>
    <path id="svg_5" d="m334.271384,206.644318l-173.8,113.6c-6.7,4.4 -15.6,2.5 -20,-4.2l0,0c-4.4,-6.7 -2.5,-15.6 4.2,-20l173.8,-113.5c6.7,-4.4 15.6,-2.5 20,4.2l0,0c4.3,6.6 2.5,15.6 -4.2,19.9z" class="st3"/>
   </g>
   <g id="svg_6">
    <path id="svg_7" d="m558.471384,303.244318l25.5,16.6l107.9,-165.2c4.6,-7 2.6,-16.5 -4.4,-21.1l0,0c-7,-4.6 -16.5,-2.6 -21.1,4.4l-107.9,165.3z" class="st0"/>
    <path id="svg_8" d="m676.671384,150.044318c49.2,32.2 62.8,98.7 30.9,147.4l-178.3,-116.5c31.8,-48.7 98.2,-63 147.4,-30.9z" class="st1"/>
    <path id="svg_9" d="m676.671384,150.044318c3.4,2.2 6.6,4.6 9.6,7.1c-47.8,-24.1 -107.4,-8.6 -137.1,36.9l-19.9,-13c31.8,-48.8 98.2,-63.1 147.4,-31z" class="st2"/>
    <path id="svg_10" d="m515.771384,206.644318l173.8,113.5c6.7,4.4 15.6,2.5 20,-4.2l0,0c4.4,-6.7 2.5,-15.6 -4.2,-20l-173.8,-113.5c-6.7,-4.4 -15.6,-2.5 -20,4.2l0,0c-4.4,6.7 -2.5,15.7 4.2,20z" class="st3"/>
   </g>
   <rect id="svg_11" height="85.6" width="17.9" class="st0" y="171.344318" x="416.071384"/>
   <path id="svg_12" d="m391.071384,185.944318l0,0c0,-8.1 6.5,-14.6 14.6,-14.6l38.7,0c8.1,0 14.6,6.5 14.6,14.6l0,0c0,8.1 -6.5,14.6 -14.6,14.6l-38.7,0c-8.1,0 -14.6,-6.6 -14.6,-14.6z" class="st4"/>
   <path id="svg_13" d="m623.271384,850.344318l-72.9,-89.8l91.3,-40.7l18.1,114.3c3.3,20.8 -23.2,32.7 -36.5,16.2z" class="st0"/>
   <path id="svg_14" d="m230.471384,850.344318l72.9,-89.8l-91.3,-40.7l-18.1,114.2c-3.3,20.9 23.2,32.8 36.5,16.3z" class="st0"/>
   <circle id="svg_15" r="303.800018" cy="538.844318" cx="424.971384" class="st4"/>
   <circle id="svg_16" r="244.800003" cy="538.844318" cx="424.971384" class="st5"/>
   <g id="svg_17">
    <circle id="svg_18" r="15.3" cy="348.844318" cx="424.971384" class="st6"/>
    <circle id="svg_19" r="15.3" cy="733.544318" cx="424.971384" class="st6"/>
    <circle id="svg_20" r="15.3" cy="541.144318" cx="617.271384" class="st6"/>
    <circle id="svg_21" r="15.3" cy="541.144318" cx="232.671384" class="st6"/>
    <path id="svg_22" d="m516.371384,389.144318l0,0c-2.4,-1.4 -3.1,-4.5 -1.7,-6.9l10.3,-17.1c1.4,-2.4 4.5,-3.1 6.9,-1.7l0,0c2.4,1.4 3.1,4.5 1.7,6.9l-10.3,17.1c-1.5,2.4 -4.6,3.1 -6.9,1.7z" class="st6"/>
    <path id="svg_23" d="m318.171384,719.244318l0,0c-2.4,-1.4 -3.1,-4.5 -1.7,-6.9l10.3,-17.1c1.4,-2.4 4.5,-3.1 6.9,-1.7l0,0c2.4,1.4 3.1,4.5 1.7,6.9l-10.4,17.1c-1.4,2.4 -4.4,3.1 -6.8,1.7z" class="st6"/>
    <path id="svg_24" d="m574.471384,445.744318l0,0c-1.5,-2.3 -0.8,-5.4 1.5,-6.9l16.9,-10.8c2.3,-1.5 5.4,-0.8 6.9,1.5l0,0c1.5,2.3 0.8,5.4 -1.5,6.9l-16.9,10.8c-2.3,1.5 -5.4,0.8 -6.9,-1.5z" class="st6"/>
    <path id="svg_25" d="m250.171384,653.144318l0,0c-1.5,-2.3 -0.8,-5.4 1.5,-6.9l16.9,-10.8c2.3,-1.5 5.4,-0.8 6.9,1.5l0,0c1.5,2.3 0.8,5.4 -1.5,6.9l-16.9,10.8c-2.3,1.5 -5.4,0.8 -6.9,-1.5z" class="st6"/>
    <path id="svg_26" d="m595.971384,649.844318l-17.1,-10.3c-2.4,-1.4 -3.1,-4.5 -1.7,-6.9l0,0c1.4,-2.4 4.5,-3.1 6.9,-1.7l17.1,10.3c2.4,1.4 3.1,4.5 1.7,6.9l0,0c-1.4,2.4 -4.5,3.1 -6.9,1.7z" class="st6"/>
    <path id="svg_27" d="m265.971384,451.644318l-17.1,-10.3c-2.4,-1.4 -3.1,-4.5 -1.7,-6.9l0,0c1.4,-2.4 4.5,-3.1 6.9,-1.7l17.1,10.3c2.4,1.4 3.1,4.5 1.7,6.9l0,0c-1.5,2.4 -4.6,3.2 -6.9,1.7z" class="st6"/>
    <path id="svg_28" d="m529.871384,714.644318l-10.8,-16.9c-1.5,-2.3 -0.8,-5.4 1.5,-6.9l0,0c2.3,-1.5 5.4,-0.8 6.9,1.5l10.8,16.9c1.5,2.3 0.8,5.4 -1.5,6.9l0,0c-2.3,1.5 -5.4,0.8 -6.9,-1.5z" class="st6"/>
    <path id="svg_29" d="m322.471384,390.244318l-10.8,-16.9c-1.5,-2.3 -0.8,-5.4 1.5,-6.9l0,0c2.3,-1.5 5.4,-0.8 6.9,1.5l10.8,16.9c1.5,2.3 0.8,5.4 -1.5,6.9l0,0c-2.4,1.5 -5.4,0.9 -6.9,-1.5z" class="st6"/>
   </g>
   <line id="svg_30" y2="421.244318" x2="346.171384" y1="541.144318" x1="424.971384" class="st7"/>
   <line id="svg_31" y2="541.844318" x2="540.971384" y1="541.844318" x1="424.971384" class="st8"/>
   <circle id="svg_32" r="34.099998" cy="541.144318" cx="424.971384" class="st9"/>
   <path id="svg_33" d="m77.371384,152.944318l0,0c-4.2,-0.2 -7.3,-4 -6.6,-8.1c2,-12.4 8.5,-37 28.7,-55.8c22.7,-21 43.2,-27.1 54.3,-28.9c4.3,-0.7 8.2,2.8 8,7.2l0,0.1c-0.2,3.3 -2.6,6 -5.8,6.6c-8.7,1.4 -26.7,6.6 -46.9,25.3c-17,15.8 -22.6,37.4 -24.4,47.8c-0.6,3.4 -3.7,5.9 -7.3,5.8z" class="st1"/>
   <path id="svg_34" d="m48.471384,110.044318l0,0c-4.3,-0.5 -7,-4.7 -5.9,-8.8c2.5,-9.2 8.4,-24.8 21.8,-37.5c13.6,-13 30.6,-19 40.3,-21.6c4,-1.1 8.1,1.6 8.7,5.7l0,0.1c0.5,3.5 -1.7,6.9 -5.1,7.8c-8.1,2.2 -22.9,7.3 -34.2,18.1c-11,10.6 -15.9,23.7 -17.9,31.1c-1,3.4 -4.2,5.5 -7.7,5.1z" class="st1"/>
   <path id="svg_35" d="m772.571384,152.944318c-3.5,0.2 -6.6,-2.3 -7.2,-5.8c-1.8,-10.4 -7.3,-32 -24.4,-47.8c-20.4,-18.9 -38.2,-24 -46.9,-25.3c-3.3,-0.5 -5.7,-3.3 -5.9,-6.6l0,0c-0.2,-4.4 3.7,-7.9 8,-7.2c11,1.7 31.6,7.8 54.3,28.9c20.2,18.7 26.6,43.4 28.7,55.8c0.7,4 -2.4,7.8 -6.6,8l0,0z" class="st1"/>
   <path id="svg_36" d="m801.471384,110.044318c-3.5,0.5 -6.7,-1.7 -7.6,-5.1c-2.1,-7.5 -7,-20.6 -17.9,-31.1c-11.3,-10.8 -26,-16 -34.2,-18.1c-3.4,-0.9 -5.6,-4.3 -5.1,-7.8l0,-0.1c0.6,-4.1 4.7,-6.8 8.7,-5.7c9.7,2.5 26.7,8.6 40.3,21.6c13.3,12.8 19.3,28.3 21.8,37.5c1,4.1 -1.8,8.2 -6,8.8l0.6,-0.1l-0.6,0.1z" class="st1"/>
  </g>
 </g>
</svg>