<?xml version="1.0" encoding="utf-8"?>
<!-- Generator: Adobe Illustrator 23.0.4, SVG Export Plug-In . SVG Version: 6.00 Build 0)  -->
<svg version="1.1" id="Layer_1" xmlns="http://www.w3.org/2000/svg" xmlns:xlink="http://www.w3.org/1999/xlink" x="0px" y="0px"
	 viewBox="0 0 492.31 260.84" style="enable-background:new 0 0 492.31 260.84;" xml:space="preserve">
<style type="text/css">
	.st0{fill:#714286;}
	.st1{fill-rule:evenodd;clip-rule:evenodd;fill:#2D2A44;}
	.st2{fill:#FFFFFF;}
	.st3{fill:#D97827;}
	.st4{fill-rule:evenodd;clip-rule:evenodd;fill:#964292;}
	.st5{opacity:0.43;fill-rule:evenodd;clip-rule:evenodd;fill:#714286;}
	.st6{fill:#964292;}
	.st7{fill:#2D2A44;}
	.st8{fill:#010101;}
	.st9{fill:#F9B418;}
	.st10{fill:#F6AE1B;}
	.st11{fill:#F2C21B;}
	.st12{fill:#F2D31E;}
	.st13{fill:#F6AE1B;stroke:#F6AE1B;stroke-width:2.1659;stroke-linecap:round;stroke-miterlimit:10;}
	.st14{fill:#ED1C24;}
</style>
<g>
	<path class="st0" d="M206.49,136.36c0,13.67,13.86,25.81,25.16,33.44c8.04,5.43,20.7,5.43,28.75,0
		c11.31-7.63,25.16-19.77,25.16-33.44c0-23.09-17.7-41.81-39.54-41.81S206.49,113.27,206.49,136.36z"/>
	<g>
		<path class="st1" d="M213.02,113.97c0.48,28.47,3.07,35.42,14.17,61.97C211.01,164.61,188.48,132.31,213.02,113.97z"/>
	</g>
	<g>
		<path class="st1" d="M278.96,113.97c-0.48,28.47-3.07,35.42-14.17,61.97C280.96,164.61,303.5,132.31,278.96,113.97z"/>
	</g>
	<g>
		<g>
			<path class="st2" d="M246.03,195.52l-18.99-10.69c-0.18-0.1-0.32-0.28-0.32-1.06v-51.46c0-0.78,0.14-0.81,0.32-0.7l18.99,13.07
				V195.52z"/>
			<path class="st2" d="M246.03,145.08v49.75l-26.89-10.46c-0.25-0.1-0.45-0.28-0.45-1.04v-50.34c0-0.76,0.2-0.79,0.45-0.69"/>
			<path class="st2" d="M246.03,195.52l18.99-10.69c0.18-0.1,0.32-0.28,0.32-1.06v-51.46c0-0.78-0.14-0.81-0.32-0.7l-18.99,13.07
				V195.52z"/>
			<path class="st2" d="M246.03,194.83l26.89-10.46c0.25-0.1,0.45-0.28,0.45-1.04v-50.34c0-0.76-0.2-0.79-0.45-0.69l-26.89,12.78
				V194.83z"/>
			<path class="st2" d="M246.03,195.23l-35.36-10.43c-0.33-0.1-0.59-0.28-0.59-1.04v-50.18c0-0.76,0.27-0.79,0.59-0.69l35.36,12.74
				V195.23z"/>
			<path class="st2" d="M246.03,195.23l35.36-10.43c0.33-0.1,0.59-0.28,0.59-1.04v-50.18c0-0.76-0.27-0.79-0.59-0.69l-35.36,12.74
				V195.23z"/>
			<g>
				<path class="st3" d="M246.03,199.78l-37.55-11.37c-0.35-0.11-0.63-0.3-0.63-1.09V135.1c0-0.79,0.28-0.97,0.63-0.86l37.55,11.37
					V199.78z"/>
			</g>
			<g>
				<path class="st3" d="M246.03,199.78l37.55-11.37c0.35-0.11,0.63-0.3,0.63-1.09V135.1c0-0.79-0.28-0.97-0.63-0.86l-37.55,11.37
					V199.78z"/>
			</g>
		</g>
	</g>
	<g>
		<path class="st4" d="M232.36,160.04c-2.22,4.1-17.44,7.44-19.15,6.87c0,0,14.22,5.73,13.98,5.97c-4.33,4.36-16.38,4.14-15.84,4.61
			c0,0,6.29,4.93,13.07,4.22c-1.34,4.55-10.08,4.1-15.5,1.95c-20.36-8.08-20.29-55.87,4.1-69.68
			C202.57,136.89,205.15,150.61,232.36,160.04z"/>
		<path class="st5" d="M210.86,116.45c0,0-20.24,14.69-13.38,49.56c5.08,22.65,23.76,16.55,23.76,16.55s-10.58-0.49-12.79-6.62
			c0,0,7.28-1.2,11.47-3.34c0,0-9.78-5.61-11.11-7.66c0,0,14.45-2.32,16.5-4.55c0,0-19.53-7.58-19.26-21.22
			C206.31,125.53,209.45,119.05,210.86,116.45z"/>
	</g>
	<g>
		<path class="st4" d="M259.95,160.04c2.22,4.1,17.44,7.44,19.15,6.87c0,0-14.22,5.73-13.98,5.97c4.33,4.36,16.38,4.14,15.84,4.61
			c0,0-6.29,4.93-13.07,4.22c1.34,4.55,10.08,4.1,15.5,1.95c20.36-8.08,20.29-55.87-4.1-69.68
			C289.74,136.89,287.16,150.61,259.95,160.04z"/>
		<path class="st5" d="M281.45,116.45c0,0,20.24,14.69,13.38,49.56c-5.08,22.65-23.76,16.55-23.76,16.55s10.58-0.49,12.79-6.62
			c0,0-7.28-1.2-11.47-3.34c0,0,9.77-5.61,11.11-7.66c0,0-14.45-2.32-16.5-4.55c0,0,19.53-7.58,19.26-21.22
			C285.99,125.53,282.86,119.05,281.45,116.45z"/>
	</g>
	<g>
		<g>
			<g>
				<g>
					
						<ellipse transform="matrix(0.9984 -0.0561 0.0561 0.9984 -5.2765 13.9623)" class="st2" cx="246.03" cy="100.96" rx="35.69" ry="35.69"/>
					<path class="st6" d="M248.03,136.59c-9.34,0.57-18.83-2.7-25.88-8.91c-3.52-3.1-6.48-6.87-8.58-11.09
						c-2.11-4.22-3.37-8.87-3.71-13.6c-0.7-9.47,2.52-19.22,8.87-26.43c3.17-3.59,7.04-6.58,11.37-8.69
						c4.32-2.1,9.07-3.33,13.87-3.62c4.8-0.25,9.66,0.44,14.19,2.04c4.54,1.6,8.72,4.14,12.27,7.36
						c7.12,6.45,11.4,15.79,11.77,25.27c0.19,4.74-0.54,9.5-2.17,13.93c-1.62,4.43-4.13,8.51-7.28,11.98
						C266.44,131.8,257.38,136.11,248.03,136.59z M248.03,136.59c4.66-0.28,9.27-1.48,13.46-3.52c4.2-2.04,7.96-4.95,11.03-8.44
						c6.16-7.01,9.27-16.46,8.59-25.65c-0.33-4.59-1.56-9.1-3.61-13.19c-2.04-4.1-4.91-7.75-8.32-10.75
						c-6.84-6.02-16.04-9.19-25.1-8.64c-9.07,0.46-17.85,4.64-23.98,11.39c-3.06,3.36-5.5,7.32-7.07,11.62
						c-1.58,4.29-2.29,8.91-2.11,13.51c0.36,9.21,4.51,18.26,11.42,24.53c3.45,3.12,7.51,5.59,11.91,7.15
						C238.66,136.16,243.37,136.83,248.03,136.59z"/>
				</g>
				<path class="st6" d="M245.93,98.84"/>
			</g>
		</g>
	</g>
	<g id="XMLID_128_">
		<g id="XMLID_129_">
			
				<ellipse id="XMLID_243_" transform="matrix(0.2298 -0.9732 0.9732 0.2298 86.1035 297.0695)" class="st7" cx="230.73" cy="94.14" rx="14.75" ry="14.75"/>
			<g id="XMLID_130_">
				
					<ellipse id="XMLID_242_" transform="matrix(0.7071 -0.7071 0.7071 0.7071 1.0156 190.7252)" class="st2" cx="230.73" cy="94.14" rx="12.41" ry="12.41"/>
			</g>
		</g>
		<g id="XMLID_131_">
			
				<ellipse id="XMLID_241_" transform="matrix(0.7071 -0.7071 0.7071 0.7071 1.0156 190.7252)" class="st8" cx="230.73" cy="94.14" rx="5.92" ry="5.92"/>
		</g>
		<g id="XMLID_132_">
			<path id="XMLID_240_" class="st2" d="M233.13,97.09c0-1.32-1.07-2.39-2.39-2.39s-2.39,1.07-2.39,2.39c0,1.32,1.07,2.39,2.39,2.39
				S233.13,98.41,233.13,97.09z"/>
		</g>
	</g>
	<g id="XMLID_134_">
		
			<ellipse id="XMLID_239_" transform="matrix(0.2249 -0.9744 0.9744 0.2249 110.7395 327.491)" class="st7" cx="261.22" cy="94.14" rx="14.75" ry="14.75"/>
		<g id="XMLID_135_">
			
				<ellipse id="XMLID_238_" transform="matrix(0.7071 -0.7071 0.7071 0.7071 9.9464 212.2859)" class="st2" cx="261.22" cy="94.14" rx="12.41" ry="12.41"/>
		</g>
	</g>
	<g>
		<g id="XMLID_136_">
			
				<ellipse id="XMLID_237_" transform="matrix(0.7071 -0.7071 0.7071 0.7071 10.0832 212.6163)" class="st8" cx="261.69" cy="94.14" rx="5.92" ry="5.92"/>
		</g>
		<g id="XMLID_61_">
			<path id="XMLID_62_" class="st2" d="M264.09,97.09c0-1.32-1.07-2.39-2.39-2.39s-2.39,1.07-2.39,2.39c0,1.32,1.07,2.39,2.39,2.39
				S264.09,98.41,264.09,97.09z"/>
		</g>
	</g>
	<polygon class="st9" points="245.93,121.31 248.99,114.8 252.04,108.3 245.93,103.12 239.81,108.3 242.87,114.8 	"/>
	<g>
		<polygon class="st10" points="195.49,49.62 245.63,30.06 295.77,49.62 295.89,51.74 245.63,64.24 195.37,51.74 		"/>
		<polygon class="st11" points="245.63,32.13 295.89,51.74 245.63,66.32 195.37,51.74 		"/>
		<path class="st10" d="M224.84,50.53c0-3.34,9.31-6.05,20.79-6.05c11.48,0,20.79,2.71,20.79,6.05c0,0.02,0,0.05,0,0.07h0v25.49
			l-41.58,0V50.6h0C224.84,50.58,224.84,50.56,224.84,50.53z"/>
		<path class="st12" d="M245.63,44.48c11.48,0,20.79,2.71,20.79,6.05c0,0.02,0,0.05,0,0.07h0v25.49h-20.79V44.48z"/>
		<line class="st13" x1="204.46" y1="52.37" x2="204.46" y2="68.68"/>
		<polygon class="st12" points="200.62,69.53 204.46,74.78 208.31,69.53 204.46,65.43 		"/>
	</g>
	<path class="st6" d="M269.3,72.57c-6.85-5.37-14.21-8.38-23.37-8.72c-9.16,0.34-16.52,3.34-23.37,8.72l23.37,7.3L269.3,72.57z"/>
	<g>
		<path class="st7" d="M273.48,64.19c-0.42,1.82-1.53,3.78-3.43,5.05c-5.01,3.34-9.5,3.8-14.01,4.5c-4.33,0.66-7.77,1.66-10.11,4.85
			c-2.34-3.19-5.77-4.18-10.11-4.85c-4.51-0.69-9-1.16-14.01-4.5c-1.91-1.27-3.01-3.23-3.43-5.05c0,0-2.18,4.77-0.26,7.88
			c3.24,5.24,11.31,4.73,16.05,5.46c4.67,0.72,9.09,2.71,11.08,6.17c0.22,0.37,0.45,0.74,0.68,1.11c0-0.01,0.01-0.02,0.01-0.02
			c0,0.01,0.01,0.02,0.01,0.02c-0.05-0.12,0.35-0.58,0.42-0.69c0.21-0.34,0.38-0.7,0.59-1.03c1.96-3.08,6.55-4.91,10.74-5.55
			c4.74-0.73,12.81-0.22,16.05-5.46C275.66,68.96,273.48,64.19,273.48,64.19z"/>
	</g>
	<g>
		<path class="st14" d="M210.47,230.78c0-9.78,0-19.55,0-29.33c5.27,0,10.55,0,15.82,0c3.55,0.01,5.31,1.47,5.28,4.38
			c-0.01,1.23-0.03,2.46-0.04,3.7c-0.02,2.11-1.12,3.4-3.29,3.93c1.16,0.1,2,0.41,2.52,0.91c0.52,0.51,0.78,1.22,0.77,2.15
			c-0.01,1.33-0.03,2.67-0.04,4c-0.03,2.89-1.83,4.57-5.36,5.35C220.82,227.03,215.57,228.67,210.47,230.78z M224.98,208.48
			c0.01-0.65-0.38-0.95-1.15-0.91c-2.25,0.14-4.49,0.29-6.74,0.47c-0.01,1.38-0.02,2.76-0.03,4.14c2.23-0.29,4.48-0.55,6.72-0.77
			c0.77-0.08,1.16-0.44,1.17-1.09C224.97,209.71,224.97,209.1,224.98,208.48z M224.88,217.26c0.01-0.65-0.38-0.92-1.15-0.81
			c-2.25,0.33-4.48,0.72-6.71,1.16c-0.01,1.39-0.02,2.79-0.03,4.18c2.22-0.55,4.45-1.03,6.7-1.46c0.77-0.14,1.16-0.54,1.17-1.19
			C224.87,218.52,224.88,217.89,224.88,217.26z"/>
		<path class="st14" d="M250.22,223.8c-0.01-2.88-0.02-5.76-0.03-8.65c-2.75-0.08-5.49-0.08-8.24,0c-0.01,2.88-0.02,5.76-0.03,8.64
			c-2.27,0.1-4.53,0.28-6.79,0.55c0.06-7.63,0.13-15.26,0.19-22.9c2.23,0,4.45,0,6.68,0c-0.01,2.87-0.02,5.74-0.03,8.61
			c2.73-0.05,5.47-0.05,8.2,0c-0.01-2.87-0.02-5.74-0.03-8.62c2.21,0,4.42,0,6.64,0c0.06,7.63,0.13,15.27,0.19,22.9
			C254.72,224.09,252.47,223.9,250.22,223.8z"/>
		<path class="st14" d="M265.96,225.87c-3.53-0.78-5.33-2.37-5.36-5.1c-0.05-5.01-0.1-10.02-0.15-15.03
			c-0.03-2.84,1.72-4.27,5.24-4.28c3.54,0,7.07,0,10.61,0c3.53-0.03,5.29,1.76,5.29,5.36c0,6.28,0,12.55,0,18.83
			c-0.01,3.46-1.68,4.42-5.12,3.19C273.01,227.64,269.5,226.65,265.96,225.87z M275.01,209.29c-0.01-0.71-0.39-1.1-1.16-1.15
			c-1.84-0.14-3.69-0.27-5.54-0.39c-0.77-0.05-1.15,0.26-1.15,0.91c0.04,3.45,0.08,6.9,0.11,10.35c0.01,0.65,0.4,1.04,1.17,1.19
			c1.85,0.34,3.69,0.73,5.52,1.16c0.76,0.18,1.14-0.08,1.13-0.79C275.06,216.8,275.03,213.04,275.01,209.29z"/>
	</g>
</g>
</svg>
