<svg width="492.31" height="260.84" xmlns="http://www.w3.org/2000/svg">
 <style type="text/css">.st0{fill:#714286;}
	.st1{fill-rule:evenodd;clip-rule:evenodd;fill:#2D2A44;}
	.st2{fill:#FFFFFF;}
	.st3{fill:#D97827;}
	.st4{fill-rule:evenodd;clip-rule:evenodd;fill:#964292;}
	.st5{opacity:0.43;fill-rule:evenodd;clip-rule:evenodd;fill:#714286;}
	.st6{fill:#964292;}
	.st7{fill:#2D2A44;}
	.st8{fill:#010101;}
	.st9{fill:#F9B418;}
	.st10{fill:#F6AE1B;}
	.st11{fill:#F2C21B;}
	.st12{fill:#F2D31E;}
	.st13{fill:#F6AE1B;stroke:#F6AE1B;stroke-width:2.1659;stroke-linecap:round;stroke-miterlimit:10;}
	.st14{fill:#ED1C24;}</style>

 <g>
  <title>background</title>
  <rect fill="none" id="canvas_background" height="402" width="582" y="-1" x="-1"/>
 </g>
 <g>
  <title>Layer 1</title>
  <g id="svg_1">
   <path id="svg_2" d="m206.49,136.36c0,13.67 13.86,25.81 25.16,33.44c8.04,5.43 20.7,5.43 28.75,0c11.31,-7.63 25.16,-19.77 25.16,-33.44c0,-23.09 -17.7,-41.81 -39.54,-41.81s-39.53,18.72 -39.53,41.81z" class="st0"/>
   <g id="svg_3">
    <path id="svg_4" d="m213.02,113.97c0.48,28.47 3.07,35.42 14.17,61.97c-16.18,-11.33 -38.71,-43.63 -14.17,-61.97z" class="st1"/>
   </g>
   <g id="svg_5">
    <path id="svg_6" d="m278.96,113.97c-0.48,28.47 -3.07,35.42 -14.17,61.97c16.17,-11.33 38.71,-43.63 14.17,-61.97z" class="st1"/>
   </g>
   <g id="svg_7">
    <g id="svg_8">
     <path id="svg_9" d="m246.03,195.52l-18.99,-10.69c-0.18,-0.1 -0.32,-0.28 -0.32,-1.06l0,-51.46c0,-0.78 0.14,-0.81 0.32,-0.7l18.99,13.07l0,50.84z" class="st2"/>
     <path id="svg_10" d="m246.03,145.08l0,49.75l-26.89,-10.46c-0.25,-0.1 -0.45,-0.28 -0.45,-1.04l0,-50.34c0,-0.76 0.2,-0.79 0.45,-0.69" class="st2"/>
     <path id="svg_11" d="m246.03,195.52l18.99,-10.69c0.18,-0.1 0.32,-0.28 0.32,-1.06l0,-51.46c0,-0.78 -0.14,-0.81 -0.32,-0.7l-18.99,13.07l0,50.84z" class="st2"/>
     <path id="svg_12" d="m246.03,194.83l26.89,-10.46c0.25,-0.1 0.45,-0.28 0.45,-1.04l0,-50.34c0,-0.76 -0.2,-0.79 -0.45,-0.69l-26.89,12.78l0,49.75z" class="st2"/>
     <path id="svg_13" d="m246.03,195.23l-35.36,-10.43c-0.33,-0.1 -0.59,-0.28 -0.59,-1.04l0,-50.18c0,-0.76 0.27,-0.79 0.59,-0.69l35.36,12.74l0,49.6z" class="st2"/>
     <path id="svg_14" d="m246.03,195.23l35.36,-10.43c0.33,-0.1 0.59,-0.28 0.59,-1.04l0,-50.18c0,-0.76 -0.27,-0.79 -0.59,-0.69l-35.36,12.74l0,49.6z" class="st2"/>
     <g id="svg_15">
      <path id="svg_16" d="m246.03,199.78l-37.55,-11.37c-0.35,-0.11 -0.63,-0.3 -0.63,-1.09l0,-52.22c0,-0.79 0.28,-0.97 0.63,-0.86l37.55,11.37l0,54.17z" class="st3"/>
     </g>
     <g id="svg_17">
      <path id="svg_18" d="m246.03,199.78l37.55,-11.37c0.35,-0.11 0.63,-0.3 0.63,-1.09l0,-52.22c0,-0.79 -0.28,-0.97 -0.63,-0.86l-37.55,11.37l0,54.17z" class="st3"/>
     </g>
    </g>
   </g>
   <g id="svg_19">
    <path id="svg_20" d="m232.36,160.04c-2.22,4.1 -17.44,7.44 -19.15,6.87c0,0 14.22,5.73 13.98,5.97c-4.33,4.36 -16.38,4.14 -15.84,4.61c0,0 6.29,4.93 13.07,4.22c-1.34,4.55 -10.08,4.1 -15.5,1.95c-20.36,-8.08 -20.29,-55.87 4.1,-69.68c-10.45,22.91 -7.87,36.63 19.34,46.06z" class="st4"/>
    <path id="svg_21" d="m210.86,116.45c0,0 -20.24,14.69 -13.38,49.56c5.08,22.65 23.76,16.55 23.76,16.55s-10.58,-0.49 -12.79,-6.62c0,0 7.28,-1.2 11.47,-3.34c0,0 -9.78,-5.61 -11.11,-7.66c0,0 14.45,-2.32 16.5,-4.55c0,0 -19.53,-7.58 -19.26,-21.22c0.26,-13.64 3.4,-20.12 4.81,-22.72z" class="st5"/>
   </g>
   <g id="svg_22">
    <path id="svg_23" d="m259.95,160.04c2.22,4.1 17.44,7.44 19.15,6.87c0,0 -14.22,5.73 -13.98,5.97c4.33,4.36 16.38,4.14 15.84,4.61c0,0 -6.29,4.93 -13.07,4.22c1.34,4.55 10.08,4.1 15.5,1.95c20.36,-8.08 20.29,-55.87 -4.1,-69.68c10.45,22.91 7.87,36.63 -19.34,46.06z" class="st4"/>
    <path id="svg_24" d="m281.45,116.45c0,0 20.24,14.69 13.38,49.56c-5.08,22.65 -23.76,16.55 -23.76,16.55s10.58,-0.49 12.79,-6.62c0,0 -7.28,-1.2 -11.47,-3.34c0,0 9.77,-5.61 11.11,-7.66c0,0 -14.45,-2.32 -16.5,-4.55c0,0 19.53,-7.58 19.26,-21.22c-0.27,-13.64 -3.4,-20.12 -4.81,-22.72z" class="st5"/>
   </g>
   <g id="svg_25">
    <g id="svg_26">
     <g id="svg_27">
      <g id="svg_28">
       <ellipse id="svg_29" ry="35.69" rx="35.69" cy="100.96" cx="246.03" class="st2" transform="matrix(0.9984,-0.0561,0.0561,0.9984,-5.2765,13.9623) "/>
       <path id="svg_30" d="m248.03,136.59c-9.34,0.57 -18.83,-2.7 -25.88,-8.91c-3.52,-3.1 -6.48,-6.87 -8.58,-11.09c-2.11,-4.22 -3.37,-8.87 -3.71,-13.6c-0.7,-9.47 2.52,-19.22 8.87,-26.43c3.17,-3.59 7.04,-6.58 11.37,-8.69c4.32,-2.1 9.07,-3.33 13.87,-3.62c4.8,-0.25 9.66,0.44 14.19,2.04c4.54,1.6 8.72,4.14 12.27,7.36c7.12,6.45 11.4,15.79 11.77,25.27c0.19,4.74 -0.54,9.5 -2.17,13.93c-1.62,4.43 -4.13,8.51 -7.28,11.98c-6.31,6.97 -15.37,11.28 -24.72,11.76zm0,0c4.66,-0.28 9.27,-1.48 13.46,-3.52c4.2,-2.04 7.96,-4.95 11.03,-8.44c6.16,-7.01 9.27,-16.46 8.59,-25.65c-0.33,-4.59 -1.56,-9.1 -3.61,-13.19c-2.04,-4.1 -4.91,-7.75 -8.32,-10.75c-6.84,-6.02 -16.04,-9.19 -25.1,-8.64c-9.07,0.46 -17.85,4.64 -23.98,11.39c-3.06,3.36 -5.5,7.32 -7.07,11.62c-1.58,4.29 -2.29,8.91 -2.11,13.51c0.36,9.21 4.51,18.26 11.42,24.53c3.45,3.12 7.51,5.59 11.91,7.15c4.41,1.56 9.12,2.23 13.78,1.99z" class="st6"/>
      </g>
      <path id="svg_31" d="m245.93,98.84" class="st6"/>
     </g>
    </g>
   </g>
   <g id="XMLID_128_">
    <g id="XMLID_129_">
     <ellipse ry="14.75" rx="14.75" cy="94.14" cx="230.73" class="st7" transform="matrix(0.2298,-0.9732,0.9732,0.2298,86.1035,297.0695) " id="XMLID_243_"/>
     <g id="XMLID_130_">
      <ellipse ry="12.41" rx="12.41" cy="94.14" cx="230.73" class="st2" transform="matrix(0.7071,-0.7071,0.7071,0.7071,1.0156,190.7252) " id="XMLID_242_"/>
     </g>
    </g>
    <g id="XMLID_131_">
     <ellipse ry="5.92" rx="5.92" cy="94.14" cx="230.73" class="st8" transform="matrix(0.7071,-0.7071,0.7071,0.7071,1.0156,190.7252) " id="XMLID_241_"/>
    </g>
    <g id="XMLID_132_">
     <path d="m233.13,97.09c0,-1.32 -1.07,-2.39 -2.39,-2.39s-2.39,1.07 -2.39,2.39c0,1.32 1.07,2.39 2.39,2.39s2.39,-1.07 2.39,-2.39z" class="st2" id="XMLID_240_"/>
    </g>
   </g>
   <g id="XMLID_134_">
    <ellipse ry="14.75" rx="14.75" cy="94.14" cx="261.22" class="st7" transform="matrix(0.2249,-0.9744,0.9744,0.2249,110.7395,327.491) " id="XMLID_239_"/>
    <g id="XMLID_135_">
     <ellipse ry="12.41" rx="12.41" cy="94.14" cx="261.22" class="st2" transform="matrix(0.7071,-0.7071,0.7071,0.7071,9.9464,212.2859) " id="XMLID_238_"/>
    </g>
   </g>
   <g id="svg_32">
    <g id="XMLID_136_">
     <ellipse ry="5.92" rx="5.92" cy="94.14" cx="261.69" class="st8" transform="matrix(0.7071,-0.7071,0.7071,0.7071,10.0832,212.6163) " id="XMLID_237_"/>
    </g>
    <g id="XMLID_61_">
     <path d="m264.09,97.09c0,-1.32 -1.07,-2.39 -2.39,-2.39s-2.39,1.07 -2.39,2.39c0,1.32 1.07,2.39 2.39,2.39s2.39,-1.07 2.39,-2.39z" class="st2" id="XMLID_62_"/>
    </g>
   </g>
   <polygon id="svg_33" points="245.93,121.31 248.99,114.8 252.04,108.3 245.93,103.12 239.81,108.3 242.87,114.8  " class="st9"/>
   <g id="svg_34">
    <polygon id="svg_35" points="195.49,49.62 245.63,30.06 295.77,49.62 295.89,51.74 245.63,64.24 195.37,51.74   " class="st10"/>
    <polygon id="svg_36" points="245.63,32.13 295.89,51.74 245.63,66.32 195.37,51.74   " class="st11"/>
    <path id="svg_37" d="m224.84,50.53c0,-3.34 9.31,-6.05 20.79,-6.05c11.48,0 20.79,2.71 20.79,6.05c0,0.02 0,0.05 0,0.07l0,0l0,25.49l-41.58,0l0,-25.49l0,0c0,-0.02 0,-0.04 0,-0.07z" class="st10"/>
    <path id="svg_38" d="m245.63,44.48c11.48,0 20.79,2.71 20.79,6.05c0,0.02 0,0.05 0,0.07l0,0l0,25.49l-20.79,0l0,-31.61z" class="st12"/>
    <line id="svg_39" y2="68.68" x2="204.46" y1="52.37" x1="204.46" class="st13"/>
    <polygon id="svg_40" points="200.62,69.53 204.46,74.78 208.31,69.53 204.46,65.43   " class="st12"/>
   </g>
   <path id="svg_41" d="m269.3,72.57c-6.85,-5.37 -14.21,-8.38 -23.37,-8.72c-9.16,0.34 -16.52,3.34 -23.37,8.72l23.37,7.3l23.37,-7.3z" class="st6"/>
   <g id="svg_42">
    <path id="svg_43" d="m273.48,64.19c-0.42,1.82 -1.53,3.78 -3.43,5.05c-5.01,3.34 -9.5,3.8 -14.01,4.5c-4.33,0.66 -7.77,1.66 -10.11,4.85c-2.34,-3.19 -5.77,-4.18 -10.11,-4.85c-4.51,-0.69 -9,-1.16 -14.01,-4.5c-1.91,-1.27 -3.01,-3.23 -3.43,-5.05c0,0 -2.18,4.77 -0.26,7.88c3.24,5.24 11.31,4.73 16.05,5.46c4.67,0.72 9.09,2.71 11.08,6.17c0.22,0.37 0.45,0.74 0.68,1.11c0,-0.01 0.01,-0.02 0.01,-0.02c0,0.01 0.01,0.02 0.01,0.02c-0.05,-0.12 0.35,-0.58 0.42,-0.69c0.21,-0.34 0.38,-0.7 0.59,-1.03c1.96,-3.08 6.55,-4.91 10.74,-5.55c4.74,-0.73 12.81,-0.22 16.05,-5.46c1.91,-3.12 -0.27,-7.89 -0.27,-7.89z" class="st7"/>
   </g>
  </g>
 </g>
</svg>